<?xml version="1.0" encoding="UTF-8" standalone="no"?>
<!DOCTYPE svg PUBLIC "-//W3C//DTD SVG 1.1//EN"
 "http://www.w3.org/Graphics/SVG/1.1/DTD/svg11.dtd">
<!-- Generated by graphviz version 7.0.0 (20221023.0053)
 -->
<!-- Title: G Pages: 1 -->
<svg width="215pt" height="426pt"
 viewBox="0.00 0.00 214.57 425.59" xmlns="http://www.w3.org/2000/svg" xmlns:xlink="http://www.w3.org/1999/xlink">
<g id="graph0" class="graph" transform="scale(1 1) rotate(0) translate(4 421.59)">
<title>G</title>
<polygon fill="white" stroke="none" points="-4,4 -4,-421.59 210.57,-421.59 210.57,4 -4,4"/>
<!-- 2 -->
<g id="node1" class="node">
<title>2</title>
<ellipse fill="none" stroke="black" cx="28.99" cy="-95.4" rx="28.98" ry="19.6"/>
<text text-anchor="start" x="16.49" y="-95.2" font-family="Times,serif" font-size="14.00">1.00</text>
<text text-anchor="start" x="19.49" y="-87.6" font-family="Fira Code" font-size="6.00">0.000</text>
</g>
<!-- 1 -->
<g id="node2" class="node">
<title>1</title>
<ellipse fill="none" stroke="black" cx="65.99" cy="-19.8" rx="27" ry="19.6"/>
<text text-anchor="start" x="63.99" y="-19.6" font-family="Times,serif" font-size="14.00">/</text>
<text text-anchor="start" x="56.49" y="-12" font-family="Fira Code" font-size="6.00">1.000</text>
</g>
<!-- 2&#45;&gt;1 -->
<g id="edge1" class="edge">
<title>2&#45;&gt;1</title>
<path fill="none" stroke="black" d="M37.95,-76.58C42.14,-68.24 47.24,-58.1 51.93,-48.76"/>
<polygon fill="black" stroke="black" points="54.94,-50.56 56.31,-40.06 48.69,-47.42 54.94,-50.56"/>
</g>
<!-- 3 -->
<g id="node3" class="node">
<title>3</title>
<ellipse fill="none" stroke="black" cx="103.99" cy="-95.4" rx="27.65" ry="19.6"/>
<text text-anchor="start" x="99.49" y="-95.2" font-family="Times,serif" font-size="14.00">+</text>
<text text-anchor="start" x="92.49" y="-87.6" font-family="Fira Code" font-size="6.00">&#45;0.019</text>
</g>
<!-- 3&#45;&gt;1 -->
<g id="edge2" class="edge">
<title>3&#45;&gt;1</title>
<path fill="none" stroke="black" d="M94.79,-76.58C90.48,-68.24 85.25,-58.1 80.43,-48.76"/>
<polygon fill="black" stroke="black" points="83.63,-47.33 75.93,-40.05 77.41,-50.54 83.63,-47.33"/>
</g>
<!-- 4 -->
<g id="node4" class="node">
<title>4</title>
<ellipse fill="none" stroke="black" cx="66.99" cy="-170.99" rx="28.98" ry="19.6"/>
<text text-anchor="start" x="54.49" y="-170.79" font-family="Times,serif" font-size="14.00">1.00</text>
<text text-anchor="start" x="57.49" y="-163.19" font-family="Fira Code" font-size="6.00">0.000</text>
</g>
<!-- 4&#45;&gt;3 -->
<g id="edge3" class="edge">
<title>4&#45;&gt;3</title>
<path fill="none" stroke="black" d="M75.95,-152.18C80.14,-143.83 85.24,-133.69 89.93,-124.36"/>
<polygon fill="black" stroke="black" points="92.94,-126.16 94.31,-115.66 86.69,-123.02 92.94,-126.16"/>
</g>
<!-- 5 -->
<g id="node5" class="node">
<title>5</title>
<ellipse fill="none" stroke="black" cx="141.99" cy="-170.99" rx="27.65" ry="19.6"/>
<text text-anchor="start" x="138.49" y="-170.79" font-family="Times,serif" font-size="14.00">e</text>
<text text-anchor="start" x="130.49" y="-163.19" font-family="Fira Code" font-size="6.00">&#45;0.019</text>
</g>
<!-- 5&#45;&gt;3 -->
<g id="edge4" class="edge">
<title>5&#45;&gt;3</title>
<path fill="none" stroke="black" d="M132.79,-152.18C128.48,-143.83 123.25,-133.69 118.43,-124.36"/>
<polygon fill="black" stroke="black" points="121.63,-122.93 113.93,-115.65 115.41,-126.14 121.63,-122.93"/>
</g>
<!-- 6 -->
<g id="node6" class="node">
<title>6</title>
<ellipse fill="none" stroke="black" cx="141.99" cy="-246.59" rx="27.65" ry="19.6"/>
<text text-anchor="start" x="137.49" y="-246.39" font-family="Times,serif" font-size="14.00">+</text>
<text text-anchor="start" x="130.49" y="-238.79" font-family="Fira Code" font-size="6.00">&#45;0.118</text>
</g>
<!-- 6&#45;&gt;5 -->
<g id="edge5" class="edge">
<title>6&#45;&gt;5</title>
<path fill="none" stroke="black" d="M141.99,-226.64C141.99,-219.17 141.99,-210.41 141.99,-202.11"/>
<polygon fill="black" stroke="black" points="145.49,-202.4 141.99,-192.4 138.49,-202.4 145.49,-202.4"/>
</g>
<!-- 7 -->
<g id="node7" class="node">
<title>7</title>
<ellipse fill="none" stroke="black" cx="105.99" cy="-322.19" rx="27.65" ry="19.6"/>
<text text-anchor="start" x="102.49" y="-321.99" font-family="Times,serif" font-size="14.00">*</text>
<text text-anchor="start" x="94.49" y="-314.39" font-family="Fira Code" font-size="6.00">&#45;0.118</text>
</g>
<!-- 7&#45;&gt;6 -->
<g id="edge6" class="edge">
<title>7&#45;&gt;6</title>
<path fill="none" stroke="black" d="M114.71,-303.37C118.79,-295.03 123.75,-284.89 128.31,-275.56"/>
<polygon fill="black" stroke="black" points="131.32,-277.38 132.57,-266.86 125.03,-274.3 131.32,-277.38"/>
</g>
<!-- 10 -->
<g id="node8" class="node">
<title>10</title>
<ellipse fill="none" stroke="black" cx="178.99" cy="-322.19" rx="27.65" ry="19.6"/>
<text text-anchor="start" x="170.99" y="-321.99" font-family="Times,serif" font-size="14.00">sin</text>
<text text-anchor="start" x="167.49" y="-314.39" font-family="Fira Code" font-size="6.00">&#45;0.118</text>
</g>
<!-- 10&#45;&gt;6 -->
<g id="edge7" class="edge">
<title>10&#45;&gt;6</title>
<path fill="none" stroke="black" d="M170.03,-303.37C165.84,-295.03 160.74,-284.89 156.05,-275.56"/>
<polygon fill="black" stroke="black" points="159.29,-274.21 151.67,-266.85 153.04,-277.36 159.29,-274.21"/>
</g>
<!-- 0 -->
<g id="node9" class="node">
<title>0</title>
<ellipse fill="none" stroke="black" cx="178.99" cy="-397.79" rx="27.65" ry="19.6"/>
<text text-anchor="start" x="171.99" y="-397.59" font-family="Times,serif" font-size="14.00">x0</text>
<text text-anchor="start" x="167.49" y="-389.99" font-family="Fira Code" font-size="6.00">&#45;0.064</text>
</g>
<!-- 0&#45;&gt;7 -->
<g id="edge8" class="edge">
<title>0&#45;&gt;7</title>
<path fill="none" stroke="black" d="M163.51,-381.18C153.64,-371.23 140.65,-358.14 129.52,-346.91"/>
<polygon fill="black" stroke="black" points="132.04,-344.49 122.52,-339.85 127.07,-349.42 132.04,-344.49"/>
</g>
<!-- 0&#45;&gt;10 -->
<g id="edge10" class="edge">
<title>0&#45;&gt;10</title>
<path fill="none" stroke="black" d="M178.99,-377.84C178.99,-370.37 178.99,-361.6 178.99,-353.31"/>
<polygon fill="black" stroke="black" points="182.49,-353.59 178.99,-343.59 175.49,-353.59 182.49,-353.59"/>
</g>
<!-- &#45;1 -->
<g id="node10" class="node">
<title>&#45;1</title>
<ellipse fill="none" stroke="black" cx="105.99" cy="-397.79" rx="27.65" ry="19.6"/>
<text text-anchor="start" x="98.99" y="-397.59" font-family="Times,serif" font-size="14.00">x1</text>
<text text-anchor="start" x="94.49" y="-389.99" font-family="Fira Code" font-size="6.00">&#45;0.118</text>
</g>
<!-- &#45;1&#45;&gt;7 -->
<g id="edge9" class="edge">
<title>&#45;1&#45;&gt;7</title>
<path fill="none" stroke="black" d="M105.99,-377.84C105.99,-370.37 105.99,-361.6 105.99,-353.31"/>
<polygon fill="black" stroke="black" points="109.49,-353.59 105.99,-343.59 102.49,-353.59 109.49,-353.59"/>
</g>
</g>
</svg>
